<svg version="1.2" xmlns="http://www.w3.org/2000/svg" viewBox="0 0 704 704" width="704" height="704">
	<defs>
		<clipPath clipPathUnits="userSpaceOnUse" id="cp1">
			<path d="m704 0v704h-704v-704z"/>
		</clipPath>
	</defs>
	<style>
		.s0 { fill: #d08b5b } 
		.s1 { fill: #ffcf77 } 
		.s2 { fill: #000000 } 
		.s3 { fill: #ffffff } 
	</style>
	<g id="Clip-Path" clip-path="url(#cp1)">
		<g>
			<g>
				<path fill-rule="evenodd" class="s0" d="m-1.3 1074q2.22-12.58 4.31-25.18 2.09-12.61 4.04-25.24 1.95-12.62 3.76-25.27 1.81-12.64 3.49-25.31c1-7.7 2.5-16.4-2.7-22-7.3-8-14-14.8-14.8-26.2-0.8-10.7 2.8-22.4 5-32.8q1.83-8.17 3.82-16.31 2-8.13 4.16-16.22 2.16-8.09 4.49-16.13 2.33-8.05 4.83-16.04c6.6-21.7 13.9-43.2 21.3-64.6 6.9-20 13.5-40.3 22.5-59.5 17-36.5 46-63.5 81.6-81.6 9-4.5 27-20.5 36.3-24 8.5-3.4 8.5 6.3 16.9 2.6 6.7-2.9 13-6.7 16.7-13.2 4-7 14.3-16.9 15.9-25 3.3-17.4-0.3-32.2 12-45.3q4.23-4.28 8.99-7.96 4.76-3.68 9.96-6.7 5.21-3.01 10.77-5.31 5.56-2.3 11.38-3.83c33.7-9.3 78.5-2.8 98.8 28.5 9.7 14.9 13 33 26.2 45.1 11.4 10.7 8.8 18 23.6 23.4 0.9 0.3 23.6-4.5 24.4-4.2 16.2-3.5 31.7 6.2 46.5 11.8q8.29 3.16 16.39 6.77 8.1 3.62 15.99 7.66 7.89 4.05 15.55 8.52 7.66 4.47 15.07 9.35 14.86 9.9 28.78 21.09 13.92 11.19 26.79 23.57 12.86 12.39 24.57 25.88 11.7 13.48 22.16 27.96 13.19 18.13 24.64 37.41 11.44 19.28 21.06 39.53 9.61 20.26 17.3 41.32 7.69 21.06 13.4 42.74c1.7 6.4 3.5 13 1.5 19.4-1.7 5.3-5.4 9.2-9.8 12.4-6 4.3-18 7-17.7 15.7 0.1 6.6 2.4 13.5 3.5 20 1.3 7.7 2.3 15.5 3.4 23.2 4.8 35.4 8.6 71 10.3 106.6q0.83 13.23 1.27 26.48 0.45 13.25 0.51 26.51 0.06 13.26-0.26 26.52-0.32 13.25-1.02 26.49c-0.1 2.3-0.8 4.5-2 6.2 1 0.4 1.2 2.4-0.1 2.7l-2.7 0.5q-0.75 0.57-1.59 1.01-0.83 0.44-1.72 0.74-0.89 0.31-1.82 0.47-0.93 0.16-1.87 0.18l-5.5 0.2c-19.3 4-38.6 7.9-58.1 10.8-23.8 3.5-47.6 6.3-71.5 8.7-49.2 4.8-98 3.2-147.1 0.6q-18.41-0.97-36.83-1.59-18.42-0.61-36.85-0.86-18.43-0.25-36.86-0.14-18.43 0.12-36.86 0.59c-49.2 1.4-98.4 3.5-147.6 4.4-55 1-110-0.5-164.8-5-7.5-0.5-12.2-6.5-10.7-14 8.9-44.7 19-89.1 27-134z"/>
				<path fill-rule="evenodd" class="s1" d="m503 597.5l-1.2-0.4c-14.5-5.7-29.6-14.8-45.4-11.4-0.5-0.2-10.8 1.9-17.9 3.2l6.7 7 11.8 2.1c-40.7 67.1-88.8 100.7-144.3 100.7-55.5 0-97.7-33.6-126.4-100.7l-4-1c-0.4 0-1 0.2-1.5 0.4-9.3 3.6-27.4 19.6-36.3 24.1-35.6 18-64.5 45-81.6 81.6-8.7 18.6-15.2 38-21.8 57.5l-0.7 2c-7.4 21.4-14.7 43-21.3 64.6-6.3 20.4-12 41-16.6 61.8l-0.7 2.9c-2.2 10.4-5.8 22-5 32.8q0.11 1.39 0.36 2.77 0.25 1.38 0.62 2.73 0.38 1.34 0.89 2.65 0.5 1.3 1.13 2.55l80.4 29-38.4 261.3c35.1 1.5 70.3 2 105.5 1.3 49.2-0.9 98.4-3 147.6-4.3 47.7-1.2 95.3-0.7 143 1.7l12 0.6q17.42 1.16 34.87 1.68 17.44 0.52 34.9 0.39 17.45-0.12 34.89-0.89 17.44-0.77 34.84-2.18l3.1-0.3v-38.3l-16.3-212.9 83-15.6 81.3-39.5q0.95-0.91 1.79-1.93 0.84-1.02 1.55-2.13 0.7-1.11 1.27-2.3 0.57-1.19 0.99-2.44c1.9-6 0.5-12-1-18l-0.5-1.3q-5.79-21.65-13.52-42.69-7.73-21.04-17.34-41.29-9.61-20.25-21.02-39.55-11.41-19.29-24.52-37.47-10.44-14.49-22.14-27.98-11.69-13.5-24.54-25.9-12.85-12.4-26.76-23.6-13.91-11.2-28.76-21.12c-19.8-13-40.9-23.9-63-32.3z"/>
				<path fill-rule="evenodd" class="s2" d="m471.8 584.6c-5.1-0.3-10.3 0.6-15.4 1-0.4 0.1-0.6 0.8 0 0.9 9 1.9 18 4.5 26.9 7.1l3.8 1.2c10 3 19.8 6 29.6 10 19.4 7.9 37.8 18.5 54.8 30.8 65.3 47.2 112.5 118.7 142.4 192.7q3.77 9.37 7.18 18.89 3.41 9.51 6.45 19.14 3.04 9.64 5.71 19.38 2.67 9.75 4.96 19.59c0.4 1.6 2 5.4 1 7-0.7 1.3-3.6 2.1-5 2.9l-4.5 2.3-25.2 12.9-2.3 1.1c-38 18.6-78.4 34.4-121 35.5l-0.4-3.7q-0.57-7.59-1.47-15.15-0.9-7.56-2.14-15.07-1.24-7.51-2.82-14.96-1.57-7.45-3.47-14.82c-0.3-1-1.6-0.6-1.7 0.3-3 23.1-2 46.4-1 69.7 1.8 41 4.3 82.2 6.5 123.3 1.2 20.6 2.6 41 3.9 61.7 1.3 20.5 1.7 41.6 4.7 62 0.6 4.6 6 7 10 6.6 4.4-0.5 7.9-4.5 8-9 0-11.9-1.5-24-2.4-35.8l-2.5-33.8c-3.1-41.1-6.8-82.2-10.2-123.3q-0.45-5.46-0.91-10.93-0.46-5.46-0.94-10.92-0.47-5.47-0.96-10.93-0.49-5.46-0.99-10.92c45.2-1.5 87.4-18.3 127.7-37.8 0.6 13.2 2 26.5 3.4 39.6 3.8 36.8 7.1 73.6 9.6 110.5q0.76 11.58 1.41 23.16 0.64 11.58 1.17 23.17 0.52 11.59 0.93 23.18 0.4 11.59 0.69 23.19l0.2 7c0 4.4 0.5 8.5 4.3 11.7 3.7 3.3 8.9 3.5 12.6 0 5-4.6 4.2-10.9 4-17.1q-0.14-5.9-0.33-11.8-0.18-5.91-0.4-11.81-0.23-5.9-0.5-11.8-0.26-5.89-0.57-11.79-0.74-13.73-1.77-27.45-1.03-13.72-2.34-27.41-1.31-13.69-2.91-27.35-1.6-13.66-3.48-27.29l-2-14c-3.5-26-7.5-52.7-15.5-77.9 3.1-1.5 6.2-3 9.3-4.7 5.5-2.7 11.2-5.4 16.6-8.4 4.2-2.5 7.9-5.8 9-10.8 1.4-5.5-0.6-11.5-2-16.9v-0.4q-2.48-10.26-5.38-20.4-2.91-10.15-6.24-20.16-3.33-10.01-7.07-19.88-3.75-9.86-7.91-19.56-6.53-15.65-14.07-30.84-7.53-15.19-16.03-29.86-8.51-14.67-17.94-28.76-9.43-14.09-19.76-27.54-9.18-12.23-19.39-23.63-10.2-11.39-21.35-21.86-11.15-10.47-23.16-19.94-12.02-9.47-24.8-17.87-6.29-4.04-12.82-7.68-6.53-3.63-13.28-6.85-6.74-3.23-13.67-6.02-6.94-2.79-14.03-5.15-5.17-1.75-10.45-3.1-5.29-1.35-10.66-2.29-5.38-0.94-10.81-1.47-5.43-0.53-10.88-0.64zm-90.1-66c-6-6.5-18.1 0.2-15.2 8.8q2.31 7.6 5.71 14.78 3.4 7.17 7.8 13.78 4.41 6.61 9.74 12.5 5.32 5.89 11.45 10.94c3.84 3.24 7.98 6.11 12.36 8.57 4.38 2.46 8.99 4.5 13.75 6.09 4.77 1.59 9.68 2.72 14.66 3.38 4.98 0.66 10.01 0.85 15.03 0.56l-1.7 2.4q-5.02 7.18-10.43 14.07-5.41 6.9-11.18 13.49-5.78 6.59-11.91 12.85-6.12 6.27-12.58 12.19c-36 31.2-84.8 48-132 36-37.1-9.4-69.8-38.8-79.4-76.2 1.3 0.6 3 0.9 4.8 0.5 7.7-1.7 15.3-9.8 20.3-15.6 5.3-6.3 9.5-13 12.6-20.7 5.6-14 7.4-32.1-0.3-45.7-1-1.7-3-0.7-3.3 1l-0.3 2.5c-1.5 12.7-3.3 25-9.3 36.6q-1.69 3.3-3.68 6.41-2 3.12-4.29 6.03-2.29 2.91-4.86 5.58-2.56 2.67-5.37 5.08c-2.6 2-5.8 3.6-8.1 6l-0.5 0.4c-0.6-5-4.1-7.3-7.6-7.2-3.3 0.2-7.3 1.6-8.8 2.3l-0.1 0.1q-8.7 4.3-17.15 9.09-8.44 4.79-16.6 10.06-8.15 5.26-16 10.98-7.84 5.71-15.35 11.87c-10.44 8.16-20.23 17.1-29.3 26.75-9.07 9.66-17.38 19.99-24.87 30.92-7.49 10.92-14.12 22.41-19.85 34.35-5.73 11.94-10.54 24.3-14.38 36.98-7.5 25.3-11.8 51.4-16.3 77.4l-2.8 16c-4.2 23.9-8.9 48.4-18.4 70.7-2.5 5.7-0.6 11.1 5.5 13.4q2.8 1.07 5.61 2.13 2.81 1.07 5.62 2.12 2.82 1.05 5.63 2.08 2.82 1.04 5.64 2.07c-3.7 16-6 32.5-8.7 48.5-6 34.1-13.2 68-19.4 102-3.2 17.5-6.1 35-9.3 52.3l-4.7 25.2-2.4 13.6-0.1 0.7c-0.5 2.4-1 4.9-0.4 7.3 0.8 2.7 2.9 4.6 4.8 6.6 1.6 1.6 3.8 1.6 5.7 0.7l0.7-0.3c3.4-1.6 6-3.2 7.3-7 0.7-2.5 1-5.2 1.5-7.7q1.01-5.44 2-10.89 0.99-5.45 1.97-10.9 0.97-5.45 1.93-10.9 0.96-5.45 1.9-10.91l1.6-9.1c5.2-31.4 10.2-62.9 12.8-94.5 1-14 2.3-28.1 3.5-42.2l0.9-10.5c1.1-13.3 2.5-27 2.7-40.5l4.5 1.6 22.2 7.9c5.5 2 12.5 6 18.4 5.2 2.9-0.3 5-1.2 6.8-2.9-2 28.8-4.8 57.4-8.5 86q-2.16 16.96-4.62 33.89-2.45 16.92-5.21 33.8-2.75 16.88-5.79 33.71-3.04 16.83-6.38 33.6c-0.6 3.2-1.4 6.4-1.9 9.6-0.5 3.7 0.5 5.9 2.5 9 1.7 2.4 5 3.7 7.8 2 3.6-2.3 5.5-4.3 6.5-8.4 1-3.7 1.6-7.6 2.3-11.4q1.59-8.12 3.09-16.26 1.51-8.13 2.94-16.28 1.42-8.15 2.76-16.32 1.35-8.16 2.61-16.34c7.8-52 12.7-104.4 15.2-156.8q0.45-9.72 0.76-19.44 0.31-9.72 0.49-19.45 0.17-9.73 0.21-19.45 0.04-9.73-0.06-19.46c0-13.3-0.5-26.6-1.4-39.9-1-13.4-3-26.5-4.8-39.8 0-0.5-0.7-0.5-0.7 0-0.8 14.9-2.1 29.8-2.8 44.7-0.6 14.3-0.9 28.5-1.4 42.8-0.6 18.7-1.5 37.5-2.7 56.2q-0.79-0.88-1.77-1.55-0.98-0.66-2.09-1.06-1.11-0.41-2.29-0.53-1.18-0.13-2.35 0.04c-4.7-1-9.7-3.4-14.1-5l-16.8-5.5-26.4-8.7q2.86-9.95 5.42-19.98 2.56-10.04 4.81-20.15 2.25-10.1 4.2-20.27 1.94-10.17 3.57-20.4l2-12.3c4-24.2 8.5-48.5 15.8-72q2.88-9.18 6.53-18.08 3.64-8.91 8.01-17.48 4.37-8.57 9.45-16.74 5.07-8.18 10.81-15.9 5.85-7.57 12.08-14.83 6.24-7.26 12.84-14.18 6.6-6.93 13.55-13.51 6.95-6.57 14.23-12.78c16.4-14.4 33.7-27.4 50.4-41.4-0.1 0.9-0.2 2 0 3 3.5 25.9 17 50 35.8 67.9 37.7 36 93.6 43.4 142 26.5 46.7-16.3 88-55 102.6-102.8 0.3-0.8-0.8-1-1.3-0.5l-2.4 3.3c0-0.4-0.2-0.9-0.7-1q-6.53-2.34-12.76-5.38-6.24-3.03-12.11-6.71-5.88-3.68-11.33-7.97-5.44-4.29-10.4-9.14-3.46-3.58-6.54-7.49-3.09-3.91-5.77-8.1-2.68-4.19-4.93-8.63-2.26-4.44-4.06-9.08l-0.4-1c-1.7-5-3.2-10.2-7-14.2z"/>
			</g>
			<g>
				<path fill-rule="evenodd" class="s0" d="m306.51 137.3c-56.68 0-139.7 37.9-145.89 74.4-7.29 43-23.65 204.6-14.77 257.5 8.98 52.9 43.51 92 120.15 92 76.63 0 133.91-41.9 146.99-56.3 13.17-14.4 29.03-59.1 29.03-59.1 0 0 41.92-7.1 42.21-40.7 0.2-33.5-21.15-43.8-21.15-43.8 0 0 11.48-139-12.57-173.5-24.25-34.5-87.42-50.5-144-50.5z"/>
				<g>
					<path class="s2" d="m135.37 314.3c-2.99 33.8-4.19 68-4.89 101.8-0.5 32.2 2.3 65.7 20.56 93.2 15.97 24 40.31 41.5 67.46 50.9q5.9 1.88 11.92 3.32 6.02 1.43 12.13 2.41 6.12 0.98 12.29 1.5 6.16 0.51 12.35 0.57c8.49 0.3 16.97 0 25.25-1l3.19-0.3c6.99-0.6 14.07-1.2 19.26-6.6 1.6-1.7 1.6-5.1-0.8-6.2q-1.47-0.73-3.04-1.21-1.57-0.48-3.2-0.7-1.63-0.22-3.27-0.17-1.65 0.06-3.26 0.38-4.9 0.68-9.84 1.1-4.93 0.43-9.88 0.59-4.95 0.16-9.9 0.06-4.96-0.09-9.89-0.45-6.27-0.53-12.47-1.61-6.19-1.09-12.26-2.72-6.08-1.64-11.98-3.81-5.91-2.17-11.59-4.86c-5.93-2.66-11.61-5.84-16.98-9.49-5.37-3.66-10.42-7.78-15.07-12.31-4.65-4.54-8.9-9.48-12.7-14.76-3.79-5.28-7.12-10.88-9.94-16.74-12.47-27.3-11.77-59-11.27-88.5v-1.2c0.7-32.7 1.99-65.3 4.79-97.9q0.84-9.05 1.85-18.09 1.01-9.03 2.18-18.05 1.17-9.01 2.51-18 1.34-8.99 2.84-17.96l1.59-7.5 1.3-5.5 2 0.2c4.19 0 8.78-1 11.87-3.9q0.5 0.33 1.04 0.58 0.54 0.25 1.11 0.43 0.57 0.18 1.16 0.28 0.59 0.09 1.18 0.11c11.08 0.6 22.25 0.3 33.43 0q8.76-0.05 17.51-0.08 8.76-0.04 17.52-0.06 8.75-0.03 17.51-0.04 8.76-0.02 17.51-0.02h7.99q6.63 0.07 13.27 0.08 6.64 0.02 13.27-0.03 6.64-0.05 13.27-0.17 6.64-0.11 13.27-0.28c13.08-0.2 26.35-0.4 39.12-2.8 5.29 19 5.09 39.7-5.99 56.7-3.09 4.7-0.59 10.3 3.5 13.3q1.97 1.57 4.12 2.88 2.16 1.31 4.45 2.34 2.3 1.04 4.7 1.79 2.41 0.74 4.89 1.19 0.22 0.53 0.44 1.05 0.22 0.53 0.45 1.05 0.22 0.53 0.45 1.05 0.23 0.53 0.45 1.05 1.79 3.95 3.34 8 1.55 4.05 2.85 8.19 1.3 4.13 2.35 8.34 1.05 4.21 1.84 8.47-0.02 0.29-0.04 0.58-0.03 0.28-0.05 0.57-0.03 0.29-0.05 0.58-0.03 0.28-0.06 0.57l-0.2 0.8-0.2 1.4-0.89 4.4c-1 4.8-1.6 9.6-2.1 14.4-1 8.8-0.9 20.2 7.68 25.4 4.59 2.8 9.98 2.5 14.97 0.7 2.7-1 4.99-2.5 7.49-4l1.49-0.8c0.8-0.5 1.6-1 2.4-1.3 1-0.6 1.99-1 2.99-1.7l1.3-1q3.01 0.67 5.87 1.82 2.87 1.15 5.5 2.76 2.64 1.61 4.97 3.63 2.34 2.02 4.32 4.39 2.63 3.23 4.56 6.92 1.92 3.7 3.06 7.71 1.13 4.02 1.42 8.18 0.29 4.16-0.26 8.29c-1 10.3-4.99 22-12.98 28.8q-1.93 1.68-4.23 2.79-2.31 1.11-4.82 1.57-2.51 0.46-5.06 0.24-2.55-0.22-4.95-1.1l-2.99-0.4c-1.4-0.2-2.79-0.3-3.89-0.8-2.99-1.2-6.59 2.5-5.39 5.5l0.7 1.9c0.6 1.4 1 2.8 1.89 4q-3.1 5.07-6.34 10.06-3.24 4.99-6.61 9.89-3.37 4.91-6.87 9.72-3.5 4.81-7.12 9.53c-6.19 8-12.97 15-19.96 22.2l-8.68 9c-4.19 4.6-5.98 13.6 1.7 15.6 6.78 1.7 12.07-4.5 16.26-9.5l1.6-1.9q6.93-7.62 12.88-16.04 5.94-8.41 10.83-17.49 4.88-9.07 8.62-18.68 3.74-9.6 6.29-19.59c2.99 2 6.29 3.2 9.88 3.7q2.61 0.35 5.24 0.28 2.63-0.08 5.22-0.59 2.58-0.51 5.05-1.44 2.46-0.93 4.75-2.25c23.35-13.5 28.93-50 18.06-73q-1-2.06-2.21-4-1.22-1.94-2.64-3.73-1.42-1.79-3.04-3.41-1.61-1.63-3.39-3.06 0.6-1.05 0.3-2.4l-1.4-4.7c0.6-0.3 1-0.8 0.9-1.5l-1.1-11.4-0.2-2 0.1-6.3c0.2-4.7 0.3-9.4 0.3-14.2 0-5-0.3-10.2-0.4-15.2l-0.49-17.5c0-18.9-0.4-37.8-0.8-56.6q-0.33-14.2-0.53-28.4-0.19-14.2-0.26-28.4-0.06-14.2 0.01-28.4 0.07-14.2 0.28-28.4v-0.4l0.3-7c0.8-13.7 1.79-29.2-10.48-37.3q-0.89-0.55-1.88-0.87-1-0.33-2.04-0.41-1.04-0.08-2.07 0.1-1.03 0.17-1.99 0.58-2.92-1.84-6.02-3.35-3.1-1.52-6.35-2.68-3.25-1.16-6.6-1.95-3.36-0.8-6.78-1.22c-13.27-2.1-26.54-3.4-39.91-4.7l-11.68-1.1c-8.98-1-18.36-1.3-27.34-1l-14.17-0.3c-4.49-0.2-8.98-0.4-13.37-0.3q-4.02 0.04-8.04 0.15-4.02 0.1-8.04 0.28-4.02 0.17-8.03 0.42-4.02 0.24-8.03 0.55l-0.79-0.1c-15.77-1.5-31.64-0.7-47.5 0-3.8 0.3-7.59 0.5-11.48 0.6-18.76 0.8-38.52 2.8-55.38 11.8q-0.75 0.4-1.47 0.84-0.71 0.44-1.4 0.93-0.69 0.49-1.35 1.02-0.65 0.54-1.27 1.11c-2.2 0.3-4.29 1-6.19 2-5.39-1.1-11.47 1.3-12.77 7.6q-0.75 3.48-1.21 7.01-0.46 3.53-0.64 7.08-0.18 3.56-0.06 7.12 0.11 3.55 0.51 7.09v0.3c-2.19 8.7-1.99 18.2-0.2 26.7q-0.34 4.68-0.59 9.36-0.26 4.69-0.42 9.38-0.16 4.69-0.23 9.38-0.07 4.69-0.05 9.38c-0.1 5.9-0.2 11.8 0.29 17.6q0.25 2.34 0.86 4.61 0.61 2.27 1.57 4.41 0.97 2.14 2.27 4.1 1.3 1.96 2.89 3.68c0.8 1 2.19 1 3.29 0.9l0.8-0.3c-2.1 4.5-3.89 9.2-5.59 13.9l-1.1 3q-1.28 3.31-2.48 6.65-1.19 3.35-2.29 6.72-1.1 3.38-2.1 6.79-1 3.41-1.91 6.84c-4.59 18.6-7.58 37.4-9.38 56.4z"/>
					<path class="s2" d="m453.4 398.1l2.99-1.8c0 0 5.49-1.8 4.49 0.5-0.39 0.8 0.6 1.7 1.2 1 2-2 0.9-4.3-1-6-3.19-3.1-7.98-2.4-11.97-1.7-5.69 1-10.98 3.5-15.77 6.6-4.99 3.4-11.27 8-12.27 14.5-1 5.8 4.99 12.3 10.98 8.4 3.19-2.1 5.48-5.3 7.78-8.5q1.27-1.85 2.72-3.56 1.44-1.71 3.05-3.27 1.61-1.57 3.36-2.96 1.76-1.4 3.64-2.61z"/>
				</g>
			</g>
			<g>
				<g>
					<path fill-rule="evenodd" class="s3" d="m309.8 445.8c-11-6.6-51.7-1.8-83.8 0-25.5 1.4-43.7-1.4-49.5 2.5-13.1 8.9-6.8 51.7 16 57.6 22.6 5.8 106.6 14 121 0 14.6-14 15.9-48.3-3.7-60.1z"/>
					<path fill-rule="evenodd" class="s2" d="m330.3 456q2.08 4.11 3.26 8.56 1.17 4.46 1.39 9.06 0.22 4.6-0.52 9.15-0.75 4.54-2.43 8.83c-12.4 31-51.4 26.9-78.7 27.4h-2.8c-29.9 0.4-64.8-0.9-84-27.6-9.2-12.9-11.1-32 0.9-43.8q2.01-1.86 4.27-3.41 2.27-1.54 4.73-2.73 2.47-1.2 5.08-2.02 2.61-0.82 5.32-1.24c3.9-0.7 7.9-1.1 11.9-1.3 4.3-0.1 7.4 0.7 11.4 2.4 2 1 2.8 2.4 3 4q4.02-0.1 8.03-0.34 4.02-0.24 8.02-0.62 4-0.37 7.99-0.88 3.99-0.51 7.96-1.16c16.8-2.7 33.4-7.9 50.6-5.8 14 1.7 28 8.5 34.6 21.5zm-119.3 30.4c0.3 4 0.2 8.4 0.9 12.4 0.7 0.6 1.3 1.4 1.5 2.7v0.2c9.9 1.8 20.4 1.9 30.2 1.9q0.13-0.36 0.32-0.69 0.2-0.33 0.46-0.61 0.25-0.29 0.56-0.51 0.31-0.23 0.66-0.39v-0.4c-0.2-1 0.4-2.7 0.6-3.8q0.33-2.16 0.63-4.32 0.31-2.16 0.6-4.32 0.28-2.16 0.55-4.33 0.27-2.16 0.52-4.33c-12.6-0.2-25.2-0.5-37.8-1h-0.2zm46.7 5.6v0.5c-0.1 3 0.1 7.3-0.5 11 11.8 0 23.9 0.4 35.5-1.2l1.3-0.2c-3.8 0.2-8.1-3-7.2-7.8 0.7-4.8 1.6-9.4 2.6-14h-4.2c-9.1 0.1-18.1 0-27.1-0.2zm61.9-12.8c-6.5 0.6-13 0.8-19.6 0.8q0.01 2.21-0.05 4.41-0.06 2.21-0.2 4.41-0.13 2.2-0.35 4.4-0.21 2.19-0.5 4.38c-0.3 2.2-1.6 3.6-3.3 4.2 9.4-1.9 18.2-6.2 22.2-15.5 0.8-2.2 1.5-4.6 1.8-7zm-139.5 4.5c5.8 7.5 13.5 12.2 22.2 15.2 0.7-3.8 0.7-7.8 1-11.5l0.6-8.8-12.9-0.5c-4.6-0.2-9.9 0.2-14.6-0.8 1 2.4 2.3 4.5 3.7 6.4zm119.7-14.9l0.1 3 0.1 3.6c6.6 0.2 13.3 0.5 19.8 1.2q0.08-1.82-0.08-3.63-0.17-1.81-0.57-3.59-0.41-1.77-1.05-3.47-0.64-1.71-1.5-3.31c-4-7.1-11.2-11-19-12.8 1.9 5.8 2 13.1 2.2 19zm-42.3-18.2c0.7 5.1 0.4 10.6 0.6 15.4v7.6c10.2 0.4 20.4 0.8 30.5 1.4h1.7l1-6.9c0.7-6 0.5-13.1 2.2-19.1l-4.2-0.5c-9.4-0.6-18.9 0.6-28.4 1.6l-3.3 0.4zm-48.9-0.1l-0.4 0.1c0.6 4.6 0.9 9.2 1.3 13.8l0.5 7h1.7l37.5 1.9 0.5-3.6 1.3-12.4 0.5-6.2q-5.19 0.39-10.39 0.5-5.2 0.11-10.4-0.07-5.2-0.17-10.38-0.63-5.18-0.46-10.33-1.2zm-28.8 6.8c-4.3 3.2-5.7 7.9-5.3 12.7 5.3-1.6 12.2 0.1 17.5 0.4l4.2 0.2 8.2 0.4 1.2-19.6c-8.5 2.2-18.1 0.2-25.8 5.9zm54-64.3c0.8 0.6 0.5 2-0.5 2-6.6-0.5-13.1-2-19.8-1.7-4.5 0-11.6 1-13.3 6-1.9 5.6 4.2 9.9 8.8 11.3h0.3c4.2 1.3 12.2 3.2 16.1 0.6 7.3-5 15.3 6 9.3 12.2-7.1 7.3-21.8 3.4-30.1 0l-0.3-0.1c-8.9-3.7-16.5-12.2-15.5-22.3 2-22.1 32.7-14.9 45-7.9zm-45.78-34.52q2.45 0.82 4.55 2.31 2.09 1.5 3.66 3.55 1.57 2.04 2.47 4.46c2 5.3 1.2 11.6-4 14.6-1 0.7-2.2-0.2-2.2-1.3-0.2-6.3-4.1-13.1-11.2-11.6-8.3 1.7-9.1 9.8-8.7 16.8v0.8c0.2 2.9-2.1 5.6-4.8 6.4l-1 0.2h-0.7c-2.8 0.2-5.7-2.2-6.3-4.8-3.8-14.9 6.5-33.1 23.2-32.3q2.58 0.07 5.02 0.88zm133.08 17.02c2.1 4.9 3.1 13.2-2.7 16-0.7 0.4-1.5 0.3-2.1-0.3-5.5-4.7-5.2-12.9-13-15.6-6.6-2.3-13.8 2.1-15.7 8.7v0.2c-1.5 5.1-8.7 7.2-12.5 3.1-2.4-2.7-3-4.9-3.4-8.4-0.3-2.4 1.8-4 3.8-4.6 5.9-10.7 18.9-17.1 31.1-13.1 6.5 2.2 11.8 7.8 14.5 14zm9.2-41.17c2.1 3.46 3.83 7.12 5.17 10.93 1.34 3.81 2.28 7.75 2.81 11.76 0.52 4 0.63 8.05 0.32 12.08-0.1 0.6-0.7 0.8-1.1 0.3-7.5-10.6-9.8-24.6-20.5-32.9q-1.5-1.1-3.14-1.98-1.65-0.88-3.4-1.51-1.75-0.64-3.58-1.02-1.82-0.38-3.68-0.49c-5.9-0.4-11.3 2.2-17.3 1-3.6-0.8-6.4-5.5-5.1-9 6.7-18.5 32.4-8.8 42.2 1.2 2.76 2.95 5.21 6.18 7.3 9.63zm-126.7-14.83c2.7 2 3.7 4 5.7 6.6 0.3 0.4-0.3 1.1-0.8 1q-4.13-1.11-8.4-1.33-4.27-0.21-8.49 0.49-4.21 0.7-8.19 2.27-3.97 1.58-7.52 3.97-1.36 1.02-2.58 2.21-1.22 1.2-2.27 2.54-1.05 1.34-1.92 2.81-0.87 1.47-1.53 3.04c-2.6 6.3-3.5 12.2-11 14.4q-1.26 0.35-2.57 0.36-1.3 0.01-2.57-0.32-1.26-0.33-2.4-0.98-1.13-0.64-2.06-1.56l-0.6-0.6-0.2-0.3c-4.6-4.8-2.4-11.5 2.7-14.5 0.9-1.8 1.8-4.7 2.6-6.2q1.85-3.32 4.3-6.23 2.45-2.9 5.4-5.29 2.96-2.39 6.31-4.18 3.36-1.78 6.99-2.9 2.48-0.81 5.06-1.22 2.58-0.41 5.19-0.41 2.61 0 5.19 0.41 2.58 0.41 5.06 1.22c3.1 1.1 6 2.7 8.6 4.7z"/>
				</g>
			</g>
		</g>
	</g>
</svg>