<svg version="1.2" xmlns="http://www.w3.org/2000/svg" viewBox="0 0 800 42" width="800" height="42">
	<style>
		.s0 { fill: #5ede58 } 
	</style>
	<path id="Path 0" class="s0" d="m81 2.47c-3.57 0.71-9.43 2.45-13 3.86-3.57 1.42-12.57 5.98-20 10.14-7.43 4.16-17.1 8.7-21.5 10.1-4.4 1.39-11.82 2.85-16.5 3.23l-8.5 0.7-0.63 11c14.44-1.08 21.33-2.11 24.63-2.99 3.3-0.88 8.47-2.73 11.5-4.11 3.03-1.37 11.13-5.61 18-9.42 6.88-3.8 15.88-8.09 20-9.51 4.5-1.56 11.09-2.88 16.5-3.31 4.95-0.39 13.27-0.39 18.5 0 6.03 0.45 12.24 1.66 17 3.32 4.13 1.43 13.57 5.98 21 10.1 7.43 4.13 16.43 8.67 20 10.08 3.57 1.42 10.1 3.25 14.5 4.07 5.8 1.09 11.99 1.36 22.5 0.99 8.91-0.3 16.81-1.14 20.5-2.16 3.3-0.91 8.48-2.78 11.5-4.16 3.02-1.37 11.13-5.61 18-9.42 6.88-3.8 15.88-8.09 20-9.51 4.74-1.64 10.99-2.86 17-3.31 5.23-0.39 13.55-0.39 18.5 0 5.43 0.43 11.98 1.75 16.5 3.32 4.13 1.43 13.58 5.98 21 10.1 7.42 4.13 16.42 8.67 20 10.08 3.58 1.42 10.1 3.25 14.5 4.07 5.8 1.09 11.99 1.36 22.5 0.99 8.91-0.3 16.81-1.14 20.5-2.16 3.3-0.91 8.48-2.78 11.5-4.16 3.02-1.37 11.13-5.61 18-9.42 6.88-3.8 15.88-8.09 20-9.51 4.74-1.64 10.99-2.86 17-3.31 5.23-0.39 13.55-0.39 18.5 0 5.43 0.43 11.98 1.75 16.5 3.32 4.13 1.43 13.58 5.98 21 10.1 7.42 4.13 16.42 8.67 20 10.08 3.58 1.42 10.1 3.25 14.5 4.07 5.8 1.09 11.99 1.36 22.5 0.99 8.91-0.3 16.81-1.14 20.5-2.16 3.3-0.91 8.48-2.78 11.5-4.16 3.02-1.37 11.13-5.61 18-9.42 6.88-3.8 15.88-8.09 20-9.51 4.5-1.56 11.09-2.88 16.5-3.31 4.95-0.39 13.27-0.39 18.5 0 6.03 0.45 12.24 1.66 17 3.32 4.13 1.43 13.58 5.98 21 10.1 7.42 4.13 16.42 8.67 20 10.08 3.58 1.41 9.76 3.19 13.75 3.95 3.99 0.77 9.73 1.39 12.75 1.39h5.5l0.01-10.5c-12.79-1.06-20.11-2.52-24.51-3.92-4.4-1.4-14.08-5.95-21.5-10.11-7.42-4.16-16.42-8.72-20-10.13-3.58-1.41-9.76-3.19-13.75-3.95-3.99-0.77-12.65-1.39-19.25-1.39-6.6 0-15.26 0.62-19.25 1.39-3.99 0.76-10.17 2.54-13.75 3.95-3.58 1.41-12.58 5.97-20 10.13-7.42 4.16-16.99 8.68-21.25 10.05-4.26 1.36-11.91 2.84-17 3.27-5.09 0.44-13.19 0.44-18 0-4.81-0.43-12.24-1.91-16.5-3.27-4.26-1.37-13.83-5.89-21.25-10.05-7.42-4.16-16.42-8.72-20-10.13-3.58-1.41-9.76-3.19-13.75-3.95-3.99-0.77-12.65-1.39-19.25-1.39-6.6 0-15.26 0.62-19.25 1.39-3.99 0.76-10.17 2.54-13.75 3.95-3.58 1.41-12.58 5.97-20 10.13-7.42 4.16-16.99 8.68-21.25 10.05-4.26 1.36-11.69 2.84-16.5 3.27-4.81 0.44-12.91 0.44-18 0-5.09-0.43-12.74-1.91-17-3.27-4.26-1.37-13.83-5.89-21.25-10.05-7.42-4.16-16.42-8.72-20-10.13-3.58-1.41-9.76-3.19-13.75-3.95-3.99-0.77-12.65-1.39-19.25-1.39-6.6 0-15.26 0.62-19.25 1.39-3.99 0.76-10.18 2.54-13.75 3.95-3.57 1.41-12.57 5.97-20 10.13-7.43 4.16-16.99 8.68-21.25 10.05-4.26 1.36-11.69 2.84-16.5 3.27-4.81 0.44-12.91 0.44-18 0-5.09-0.43-12.74-1.91-17-3.27-4.26-1.37-13.82-5.89-21.25-10.05-7.43-4.16-16.43-8.72-20-10.13-3.57-1.41-9.76-3.19-13.75-3.95-4.06-0.78-12.85-1.35-20-1.3-7.01 0.06-15.68 0.68-19.25 1.38z"/>
</svg>