<svg version="1.2" xmlns="http://www.w3.org/2000/svg" viewBox="0 0 7638 1975" width="7638" height="1975">
	<title>logo_tagline</title>
	<style>
		.s0 { fill: #ffffff } 
	</style>
	<path id="laser tag + rock climb + mini go" class="s0" d="m258.4 1659.6q0-4.6 3.7-4.6h35.4q3.8 0 3.8 4.6v143.3q0 2.9 2.9 2.9h78.3q4.2 0 4.2 3.8v23.3q0 2.1-0.8 3.4-1.3 1.2-3.8 1.2h-118.3q-3.4 0-4.6-1.2-0.8-1.3-0.8-3.8zm212.5 177.5q-2.1 0-3-2.1-1.2-1.6 0-5l60.9-170.4q1.2-2.5 2.5-3.7 1.2-1.3 4.2-1.3h36.6q5.4 0 7.5 5.4l60.9 170.4q0.8 2.1 0 4.6-0.9 2.1-3 2.1h-36.2q-3.8 0-4.6-3.3l-12.9-35.9q-0.4-1.2-0.8-2-0.5-0.9-2.5-0.9h-60q-2.1 0-3 2.5l-13.3 36.7q-0.4 1.2-1.7 2.1-0.8 0.8-3.3 0.8zm59.2-74.6h40.4q3.3 0 2.1-4.1l-20.4-57.5q-0.9-1.7-1.7-1.7-0.8 0-1.7 1.7l-20.8 57.5q-1.7 4.1 2.1 4.1zm304.6-64.6q-5.4-6.2-13.8-10.8-7.9-4.6-22.5-4.6-15.4 0-22.9 5.9-7.9 5.4-7.9 13.7 0 2.9 1.7 6.7 1.2 3.3 5.8 6.6 4.6 3 12.5 5.5l38.7 11.2q23 5.8 33 19.6 10.4 13.7 10.4 31.7 0 17-8.8 30-8.7 12.5-25.4 19.5-16.2 6.7-39.2 6.7-16.6 0-31.2-3.7-14.6-3.8-25.8-10.9-11.3-7.5-17.6-17.1-1.2-2.5-0.8-3.7 0-2.1 2.1-3.8l19.2-12.9q2.9-1.6 4.6-1.6 2 0.4 3.3 2 5.8 7.5 11.7 12.5 5.8 4.6 13.7 7.1 7.5 2.1 17.9 2.1 16.3 0 25.9-5 9.5-5 9.5-15.4 0-4.2-2-7.9-2.1-3.8-6.7-6.3-4.2-2.9-11.7-5.4l-37.5-10.4q-14.1-4.2-24.1-12.1-10-7.5-15.1-17.9-5-10.4-5-21.7 0-15.8 8.8-28.3 8.8-12.5 24.6-19.6 15.8-7.1 37.1-7.1 14.1 0 26.2 2.9 12.1 3.4 22.1 8.8 9.6 5.8 15.8 13.7 0.9 1.3 1.7 3.4 0.4 1.2-1.7 2.9l-20.8 15.4q-1.2 0.8-2.5 0.8-1.2-0.8-3.3-2.5zm131.2-38.3q0-5 4.2-5h123.8q3.7 0 3.7 4.2l-0.4 22.5q0 5-5 5h-78.3q-4.6 0-4.6 3.7v35.9q0 4.1 3.3 4.1h52.5q4.2 0 4.2 3.8v23.7q0 1.7-1.3 2.5-0.8 0.9-2.9 0.9h-52.5q-3.3 0-3.3 2.9v38.7q0 3.4 2.5 3.4h84.1q4.2 0 4.2 3.7v23.3q0 1.7-0.8 3-1.3 1.2-3.8 1.2h-124.2q-5.4 0-5.4-5zm378.8 170.8q0.8 3-0.4 5-0.8 1.7-3.3 1.7h-36.3q-4.2 0-5.4-4.2l-26.3-68.7q-1.6-3.8-7-3.8h-23.4q-1.7 0-2.5 1.3-0.4 0.8-0.4 1.7v67.9q0 5.8-6.7 5.8h-31.2q-2.9 0-4.2-1.2-0.8-1.3-0.8-3.4v-172.9q0-4.6 3.7-4.6h76.7q32.9 0 51.3 12.9 18.3 13 18.3 37.1 0 12.5-4.6 22.5-4.6 9.6-12.1 16.3-7.9 6.6-17.1 9.6-2 0.8-0.8 3.7zm-71.3-99.2q14.2 0 21.3-5.8 7.9-6.2 7.9-17.5 0-12.1-7.9-18.3-7.5-6.3-20-6.3h-30.4q-4.6 0-4.6 4.2v39.6q0 4.1 3.3 4.1zm282.1-49.1v-22.9q0-2.1 1.3-3.4 1.2-1.2 3.7-1.2h141.3q2.5 0 3.3 1.2 1.3 1.3 1.3 3.4v22.9q0 3.7-4.2 3.7h-46.2q-2.5 0-2.5 2.1v144.6q0 4.6-4.2 4.6h-35q-3.8 0-3.8-4.2v-144.2q0-2.9-2.9-2.9h-47.5q-4.6 0-4.6-3.7zm215.5 155q-2.1 0-3.4-2.1-0.8-1.7 0-5l61.3-170.4q1.2-2.9 2.5-3.8 0.8-1.2 4.2-1.2h36.6q5.4 0 7.5 5.4l60.4 170.4q0.9 2.1 0 4.6-0.4 2.1-2.9 2.1h-35.8q-3.8 0-5-3.4l-12.5-35.8q-0.4-1.2-1.3-2.1-0.4-0.8-2-0.8h-60q-2.5 0-3.4 2.5l-12.9 36.2q-0.4 1.7-1.7 2.5-0.8 0.9-3.3 0.9zm59.2-74.6h40.4q3.3 0 2.1-4.2l-20.4-57.5q-0.9-1.6-2.1-1.6-0.4 0-1.3 1.6l-20.8 57.5q-1.7 4.2 2.1 4.2zm269.6 77.1q-24.6 0-43.4-11.7-18.3-11.7-28.7-32.5-10-20.8-10-48.7 0-29.2 10.8-50.5 10.4-20.8 29.2-32.5 19.2-11.6 44.6-11.6 20 0 35.8 7.9 15.4 7.5 25 19.2 10 11.6 12.5 25 0.8 3.7 0.4 5-0.8 1.2-3.3 1.6l-32.1 5q-2.5 0-2.9-0.8-0.8-1.3-1.3-2.9-1.2-8.4-6.2-15-4.2-6.7-11.7-10.4-7.1-4.2-17.1-4.2-12 0-20.8 6.2-8.7 6.7-13.3 20.5-4.6 13.7-4.6 35.8 0 23.7 4.6 37.9 5 13.8 13.7 20.4 9.2 5.9 21.7 5.9 7.9 0 13.7-2.1 6.3-2.5 10.5-6.3 4.5-4.1 7-9.1 3-5 4.2-10.5l0.4-7q0.9-3.8-2.5-3.8h-29.6q-2 0-2.9-0.8-1.2-0.9-1.2-3.4v-18.3q0-3.3 4.1-3.3h65.5q3.7 0 5.4 1.6 1.6 1.7 1.6 4.2v82.9q0 1.7-0.8 2.9-0.8 0.9-2.9 0.9h-7.9q-1.7 0-3.4-0.9-1.2-0.8-2.9-2.9l-7.1-17.9q-0.4-0.8-0.8-0.8-0.4 0-1.7 1.2-4.1 5.4-10.8 11.3-6.7 5.4-16.7 9.1-10 3.4-24.1 3.4zm419.6-106.7v22.9q0 6.7-7.9 6.7h-113.8q-3.7 0-5.4-1.3-1.3-1.6-1.3-5v-22.5q0-5.8 5-5.8h119.2q4.2 0 4.2 5zm-51.7 76.3h-22.5q-7.1 0-7.1-8v-113.7q0-3.8 1.7-5 1.2-1.7 4.6-1.7h22.9q5.4 0 5.4 5v119.2q0 4.2-5 4.2zm415.9 21.2q1.2 2.9 0 4.6-1.3 2.1-3.8 2.1h-35.8q-4.2 0-5.4-4.6l-26.7-68.8q-1.7-3.3-7.1-3.3h-23.3q-1.7 0-2.5 0.8-0.4 1.3-0.4 1.7v68.3q0 5.9-6.7 5.9h-31.3q-2.9 0-4.1-1.3-0.9-1.2-0.9-3.7v-172.9q0-4.6 3.8-4.6h77.1q32.9 0 50.8 12.9 18.4 13.3 18.4 37.5 0 12.5-4.6 22.1-4.6 10-12.1 16.6-7.9 6.3-16.7 9.6-2.5 0.9-1.2 3.8zm-71.3-99.2q14.2 0 21.7-5.8 7.5-6.3 7.5-17.9 0-12.1-7.5-18-7.9-6.2-20.4-6.2h-30q-5 0-5 4.2v39.5q0 4.2 3.7 4.2zm246.3 107.9q-26.3 0-45-10.8-19.2-11.3-29.2-32.1-10.4-21.2-10.4-50 0-29.2 10.4-50.4 10.8-20.8 29.6-32.1 18.7-11.7 44.6-11.7 25.4 0 44.1 11.7 18.8 11.3 29.2 32.1 10.4 21.2 10.4 50.4 0 28.8-10.4 49.6-10 20.8-28.7 32.1-19.2 11.2-44.6 11.2zm0-30q20 0 29.6-14.6 9.1-14.5 9.1-47.9 0-33.7-9.6-49.1-9.1-15.5-29.1-15.5-20.4 0-30 15.5-9.6 15.4-9.6 49.1 0 32.9 9.6 47.5 9.6 15 30 15zm258.3-157.1q14.6 0 26.7 4.2 12.5 3.8 22.5 11.3 9.6 7.5 15.8 17 6.7 10 8.4 21.7 1.2 3.8 0.4 5-0.4 1.3-2.9 1.7l-33 2.1q-2.5 0-2.9-0.9-0.8-0.8-1.2-2.9-2.5-12.9-10.4-20.8-8-8.4-22.1-8.4-18.4 0-28.8 15-10.4 14.6-10.4 48 0 32.9 10 47.9 10 14.6 30 14.6 14.2 0 24.6-7.1 10-7.1 16.7-24.2 1.2-2.1 5.4-1.7l24.2 5.5q1.2 0 2 1.2 1.3 1.3 0.9 4.6-1.3 5.4-5 12.1-3.4 7.1-9.6 14.6-5.9 7-14.6 12.9-8.8 6.2-20 10.4-11.7 3.3-26.7 3.3-25 0-44.1-11.6-18.8-12.1-28.8-33.8-10-21.2-10-49.6 0-28.3 10-48.7 10-20.9 28.8-32.1 18.7-11.3 44.1-11.3zm328.8 178.8q1.3 2.5 0.8 4.2-0.4 2-3.3 2h-37.1q-5.4 0-7.1-4.1l-39.6-77.1q-1.6-2.9-4.5 0.8l-22.1 26.3q-1.3 1.6-1.3 5v43.3q0 5.8-6.6 5.8h-30.9q-3.3 0-4.6-1.2-0.8-1.3-0.8-3.8v-172.9q0-4.6 3.8-4.6h35.4q3.7 0 3.7 4.2v73.3q0 2.5 0.9 2.5 0.8 0 2-1.2l59.6-75q1.3-2.1 2.9-2.9 2.1-0.9 5-0.9h29.6q3.4 0 4.6 1.7 1.3 1.7-0.4 3.8l-47.5 55.4q-1.7 2.5-0.4 5.8zm292.5-178.7q14.2 0 26.7 4.1 12.5 3.8 22.5 11.3 9.6 7.5 15.8 17.1 6.3 10 8.3 21.6 0.9 3.8 0.5 5-0.9 1.3-3 1.3l-33.3 2.5q-2.1 0-2.9-0.9-0.4-0.8-0.8-2.9-2.5-12.9-10.5-20.8-7.9-8.3-22.1-8.3-18.3 0-29.1 15-10 14.5-10 47.9 0 32.9 9.6 47.9 10.4 14.6 30 14.6 14.6 0 24.6-7.1 10.4-7.1 17-24.2 0.9-2.5 5.5-1.6l24.1 5.4q1.3 0 2.1 1.2 0.8 0.9 0.4 4.6-1.2 5.4-5 12.1-3.3 7.1-9.1 14.2-5.9 7.5-14.6 13.3-8.8 6.2-20.4 10-11.3 3.7-26.3 3.7-25.4 0-44.2-12-18.7-12.1-28.7-33.4-10-21.2-10-49.6 0-28.3 10-48.7 10-20.8 28.7-32.1 18.8-11.2 44.2-11.2zm171.3 7q0-4.5 4.1-4.5h35q4.2 0 4.2 4.1v143.4q0 3.3 2.5 3.3h78.3q4.6 0 4.6 3.7v23.4q0 1.6-1.2 2.9-0.9 1.2-3.4 1.2h-118.7q-2.9 0-4.2-1.2-1.2-1.3-1.2-3.8zm227.9-4.5h35.4q3.8 0 3.8 4.1v172.1q0 3.3-1.7 5-1.7 1.3-5 1.3h-30.8q-3.4 0-4.6-1.3-0.9-1.2-0.9-4.2v-172.5q0-4.5 3.8-4.5zm148.8 182.5q-5.5 0-5.5-5.9v-172.1q0-4.5 4.2-4.5h50.8q3 0 4.2 0.8 1.3 0.4 2.1 2.9l37.1 102.9q0.4 2.1 1.6 2.1 0.9 0 1.7-2.1l35.4-101.2q1.3-5.4 5.4-5.5h53q3.7 0 3.7 4.2v172.1q0 6.3-6.2 6.2h-31.7q-2.9 0.1-4.2-1.2-1.2-1.2-1.2-3.7v-122.5q0-1.7-0.9-1.7-0.8 0-1.2 2.1l-42.9 122.9q-1.7 4.2-5.4 4.2h-20.5q-4.1 0-5.4-4.2l-42.5-121.3q-0.4-2.5-1.6-2-0.9 0.4-0.9 2v120.9q0 2.5-0.8 3.3-0.8 1.3-3.3 1.3zm302.5 0q-2.1 0-3.4-1.3-1.2-1.2-1.2-3.3v-172.9q0-2.1 1.2-3.8 1.3-1.2 3.8-1.2h66.7q35.8 0 55 12 19.1 12.1 19.1 35.9 0 13.3-7.5 22.9-7.1 9.2-24.6 16.7-0.8 0.4-0.8 1.2 0 0.8 0.8 0.8 19.2 6.3 28 16.7 8.3 10 8.3 26.7 0 25-18.8 37.5-18.7 12.1-56.6 12zm42.1-29.1h27q15.9 0 23.8-6.7 7.9-6.7 7.9-17.5 0-7.9-3.7-13.3-4.2-5.4-10.9-7.9-6.6-3-15.4-3h-27.5q-5 0-5 4.2v39.6q0 4.6 3.8 4.6zm0-78.4h28.7q5.4 0 10.4-1.2 5-1.3 8.8-4.2 4.2-2.9 6.2-7.1 2.5-4.1 2.5-9.5 0-11.7-8.7-18-8.3-6.2-21.7-6.2h-25q-5 0-5 4.2v37.9q0 4.1 3.8 4.1zm441.7 3v22.9q0 7.1-8.4 7.1h-113.7q-3.8 0-5-1.7-1.3-1.3-1.3-4.6v-22.9q0-5.4 4.6-5.4h119.2q4.6 0 4.6 4.6zm-51.7 76.6h-22.9q-6.7 0-6.7-8.3v-113.8q0-3.7 1.3-5 1.6-1.2 4.5-1.2h23q5.8 0 5.8 4.6v119.1q0 4.6-5 4.6zm272.9 27.9q-5.4 0-5.4-5.8v-172.1q0-4.6 4.2-4.6h51.2q2.5 0 3.8 0.9 1.2 0.4 2.1 2.9l37 102.9q0.9 2.1 1.7 2.1 0.8 0 1.7-2.1l35.4-101.2q1.7-5.5 5.4-5.5h52.9q3.8 0 3.8 4.2v172.1q0 6.2-6.3 6.2h-31.6q-2.9 0-4.2-1.2-0.8-1.3-0.8-3.8v-122.5q0-1.6-1.3-1.6-0.8 0-1.2 2.1l-43 122.9q-1.6 4.1-5 4.1h-20.4q-4.1 0-5.4-4.1l-42.5-121.3q-0.8-2.5-2.1-2.1-0.4 0.5-0.4 2.1v120.9q0 2.5-1.2 3.3-0.5 1.2-3.4 1.2zm302.1-182.5h35q3.8 0 3.8 4.2v172.1q0 3.3-1.7 5-1.2 1.2-5 1.2h-30.8q-3.4 0-4.6-1.2-0.8-1.3-0.8-4.2v-172.5q0-4.6 4.1-4.6zm265 0h27.1q3.4 0 3.4 3.8v174.6q0 1.6-1.3 2.9-1.2 1.2-3.3 1.2h-25q-2.1 0-3.4-0.8-1.2-0.4-2.9-2.5l-78.3-110q-0.8-1.2-2.1-0.8-0.8 0-0.8 1.2v108.4q0.4 4.5-4.6 4.5h-25.8q-4.6 0-4.6-4.1v-173.8q0-4.6 4.1-4.6h30q2.5 0 3.8 0.9 1.2 0.4 3.3 2.9l72.1 102.9q1.7 2.1 2.5 1.7 1.3-0.4 1.3-2.5v-101.7q0-4.2 4.5-4.2zm138.4 0h35.4q3.8 0 3.8 4.2v172.1q0 3.3-1.7 5-1.7 1.2-5 1.2h-30.8q-3.4 0-4.6-1.2-0.9-1.3-0.9-4.2v-172.5q0-4.6 3.8-4.6zm339.6 184.6q-24.6 0-43.3-11.2-18.8-11.7-28.8-32.5-10-20.9-10-49.2 0-28.7 10.4-50 10.9-21.2 29.6-32.5 19.2-11.7 44.6-11.7 20 0 35.8 7.5 15.4 7.5 25 19.6 10 11.7 12.5 25 0.9 3.8 0 5-0.4 1.3-2.9 1.7l-32.5 5q-2.1 0-2.9-1.3-0.4-0.8-0.8-2.9-1.7-7.9-6.3-14.6-4.2-6.6-11.7-10.8-7-4.2-17-4.2-12.1 0-21.3 6.7-8.3 6.3-12.9 20-4.6 13.8-4.6 36.3 0 23.7 4.6 37.5 5 14.1 13.7 20.4 9.2 6.2 21.7 6.2 7.9 0 13.8-2.1 6.2-2.5 10.4-6.6 4.6-3.8 7.1-8.8 2.9-5 4.1-10.4l0.4-7.1q0.9-3.7-2.5-3.7h-30q-1.6 0-2.9-0.9-0.8-0.8-0.8-3.3v-18.7q0-3.4 3.7-3.4l65.9 0.4q3.7 0 5.4 1.7 1.7 1.3 1.7 4.2v82.9q0 1.7-0.9 2.5-1.2 1.2-2.9 1.2h-7.9q-1.7 0-3.3-0.8-1.3-1.2-3-3.3l-7-17.5q-0.5-0.9-0.9-0.9-0.8 0-1.6 1.3-4.6 5.4-11.3 10.8-6.2 5.4-16.2 9.2-10 3.3-24.2 3.3zm257.1 0q-25.8 0-45-10.8-18.8-11.3-29.2-32.1-10-21.2-10-50 0-29.2 10.4-50 10.5-21.2 29.2-32.5 19.2-11.7 44.6-11.7 25.8 0 44.2 11.7 19.1 11.3 29.5 32.5 10 20.8 10 50 0 28.8-10 49.6-10.4 20.8-29.1 32.1-18.8 11.2-44.6 11.2zm0-30q20.4 0 29.6-14.6 9.1-14.5 9.1-47.9 0-33.7-9.5-49.1-9.2-15.5-29.2-15.5-20 0-29.6 15.5-9.6 15.4-9.6 49.1 0 32.9 9.2 47.9 9.6 14.6 30 14.6zm182.1-150q0-4.6 3.7-4.6h35.5q3.7 0 3.7 4.2v143.3q0 3.4 2.9 3.4h78.4q4.1 0 4.1 3.7v23.4q0 2-1.2 3.3-0.9 1.2-3.4 1.2h-118.3q-3.3 0-4.6-1.2-0.8-1.3-0.8-4.2zm223.8 0q0-4.6 4.1-4.6h121.7q3.7 0 3.7 4.2v22.1q0 5-5 5h-76.6q-4.6 0-4.6 4.2v37.9q0 4.1 3.3 4.1h53.4q4.1 0 4.1 3.8v23.3q0 3.8-3.7 3.8h-53.8q-3.3 0-3.3 2.9v65.4q0 5.8-6.7 5.8h-31.2q-2.9 0-4.2-1.2-1.2-1.3-1.2-4.2z"/>
	<path id="TheArena" class="s0" d="m200.4 625.4v-58.7q0-5.9 2.5-9.2 3.4-3.3 11.3-3.3h607.1q7.1 0 10.4 3.3 3.4 3.3 3.4 9.2v58.7q0 11.3-13.8 11.3h-228.8q-12.5 0-12.5 11.2v729.2q0 14.6-13.7 14.6h-81.3q-13.3 0-13.3-14.6v-728.4q0-12-11.3-12h-246.2q-13.8 0-13.8-11.3zm783.8 766.3q-15 0-15-14.6v-808.4q0-14.5 12.5-14.5h66.7q12.5 0 12.5 13.3v301.7q0 5.4 2.1 6.6 2.5 1.3 7.9-3.3 39.6-30.4 72.5-50.8 33.8-20.5 65.4-29.2 32.5-10.4 70.9-10.4 88.3 0 134.6 47.5 46.2 46.2 46.2 124.1v420.1q0 17.9-17.1 17.9h-63.3q-7.9 0-11.3-3.4-3.3-4.5-3.3-11.2v-402.9q0-55.5-28.3-85.9-27.9-31.6-89.2-31.6-32.5 0-62.1 11.2-27.9 10-57.5 30.4-29.2 19.2-64.2 49.6v426.7q0 17.1-17.9 17.1zm706.3-261.7q0 55 26.3 101.3 27.1 45.4 70.8 72.5 45.4 27 100.4 27 56.7 0 100.9-22.5 43.7-23.7 75.4-71.2 4.6-4.6 6.7-4.6 3.3-1.3 9.1 1.3l47.5 23.7q10 5.4 2.1 15.8-30.4 45-67.5 74.2-36.2 28.3-81.2 42.1-45.5 13.3-101.7 13.3-83.8 0-147.9-38.3-64.6-38.3-101.7-107.1-37.1-69.2-37.1-159.2 0-98.3 37.1-168.3 38.3-71.2 102.9-109.6 65.4-38.3 145.4-38.3 82.5 0 143.4 36.2 60.8 36.3 95 105 33.7 68.8 33.7 165.9 0 7.9-2.1 15.8-1.2 7.9-15 7.9h-432.1q-4.6 0-7.9 5.4-2.5 4.6-2.5 11.7zm2.5-79.2h343q12.5 0 15.8-2.5 3.3-3.3 3.3-13.3 0-48.7-21.2-90.4-20.4-42.9-60-68.8-38.4-25.8-93.8-25.8-60.8 0-102.5 29.2-41.7 28.3-63.3 74.6-21.3 46.2-21.3 97zm496.3 340.9q-19.2 0-20.8-17.5 0-17.5 19.1-55.9l590.5-1187.9q10.4-20.8 26.2-25.8 17.5-5.4 40-5.4h343.4q22.5 0 31.2 17.5 8.8 17.5 12.1 38.3l252.5 1186.3q3.8 17.5-1.6 34.5-5 15.9-24.2 15.9h-341.7q-24.1 0-32.9-38.4l-40-196.6q-2.1-15.9-22.9-15.9h-365.9q-20.8 0-32.9 22.5l-104.6 210.9q-5 10.4-12.1 14.1-7 3.4-26.2 3.4zm585.4-547.1h198.4q29.6 0 21.2-34.6l-62.9-290.8q-1.7-17.5-10.4-17.5-8.8 0-17.5 15.4l-144.6 299.6q-7.1 17.5-3.3 22.9 3.3 5 19.1 5zm872.6 547.1q-26.3 0-36.7-15.9-10.4-15.4-8.7-38.3l118.7-839.6q3.4-18.7 8.8-24.1 5-5.5 20.8-5.5h276.7q14.2 0 22.9 10.9 8.8 10.4 5 34.6l-10.4 62.9q-1.7 20.8 5.4 22.5 7.1 1.6 19.2-10.4 34.6-38.4 81.7-69.6 47-31.7 95.8-48.8 48.8-19.1 85.4-19.1 35 0 55.9 5 20.8 5.4 17.5 24.5l-35 254.2q-3.4 26.3-10.5 32.9-5.4 5.4-17.5 3.8-45.4-7.1-87-8.8-40.1-3.3-59.2-3.3-31.3 0-62.9 12.1-31.3 10.4-57.1 29.6-26.3 19.1-43.8 41.6-15.8 22.9-19.1 45.4l-64.6 463.4q-3.4 27.9-15.5 34.6-10.4 5.4-40 5.4zm1170.5 17.5q-130.8 0-230-52.5-99.2-52.1-156.7-144.6-55.8-92.1-55.8-214.2 0-107.9 41.7-205.4 42.1-97.5 115-174.2 75-78.3 172.5-122 99.2-45 214.2-45 125.4 0 219.6 50.4 95.8 50.4 147.9 144.6 54.2 94.1 54.2 226.2 0 22.9-1.7 47.1-2.1 24.6-5.4 48.7-1.7 15.9-10.4 20.9-8.8 3.7-31.3 3.7h-538.3q-20.9 0-26.3 25.9-5 26.2-5 47 0 59.2 41.7 87.1 41.6 26.3 106.2 26.3 50.4 0 97.5-20.9 47.1-20.8 101.3-73.3 10.4-10.4 20.8-8.7 12.1 0 27.9 7l148 64.6q45.4 19.2 14.1 55.9-76.6 83.3-146.6 128.7-69.6 43.3-146.3 60.8-75 15.9-168.8 15.9zm-57.5-587.1h219.6q17.1 0 29.6-13.8 13.8-15.8 13.8-47 0-35-22.5-69.6-20.9-36.7-76.7-36.7-35 0-71.7 19.2-34.6 19.1-60.8 57.5-24.2 36.2-31.3 90.4zm655.1 569.6q-22.9 0-27.9-15.9-3.8-15.4-1.7-38.3l118.3-839.6q3.4-18.7 8.8-24.1 5-5.5 20.8-5.5h298q10.4 0 15.4 5.5 5.4 3.3 1.6 20.8l-12 78.3q-1.7 22.9 20.8 1.7 61.2-53.8 134.2-88.8 75-34.5 150-34.5 113.3 0 181.2 67.9 68 66.2 68 174.1 0 12.1-2.1 24.2 0 12.1-1.7 26.3l-85.4 606.2q-3.3 25.8-15.4 34.6-10.5 7.1-38.4 7.1h-266.7q-22.5 0-26.2-13.8-3.3-15.8 0-40.4l78.8-557.1q1.6-8.7 1.6-15.8 1.7-7.1 1.7-10.4 0-29.6-19.2-43.8-17.5-13.7-50.4-13.7-29.6 0-57.5 12.1-27.9 10.4-52.5 33.3-22.5 20.8-43.3 50.4l-82.1 559.2q-3.4 27.9-15.5 34.6-12 5.4-43.7 5.4zm1524.3-69.6q-43.4 47.1-113.4 67.9-69.6 19.2-146.2 19.2-121.7 0-189.6-66.3-68.4-66.2-68.4-165.4 0-102.9 54.2-172.5 55.8-69.6 142.9-111.7 87.1-43.3 188-60.8 101.2-19.2 191.6-19.2h12.1q33.4 0 38.4-34.5l5.4-30q1.6-6.7 1.6-12.1 0-7.1 0-12.1 0-35-19.1-50.4-19.2-15.9-59.2-15.9-41.7 0-87.1 15.9-43.7 13.7-71.2 69.6-5.5 10.4-14.2 13.7-8.8 3.8-31.3 0l-221.2-45q-13.8-3.7-22.5-17.5-7.1-15.8 8.7-55.8 55.4-102.9 172.1-144.6 118.8-43.3 284.2-43.3 147.9 0 233.3 31.2 87.1 31.3 123.8 87.1 36.7 55.8 36.7 128.7 0 12.1-2.1 24.6 0 12.1-1.7 25.9l-85.4 606.2q-3.3 26.3-8.8 31.3-5 5.4-29.5 5.4h-238.4q-22.9 0-27.9-15.9-5.4-15.4-8.8-40l-1.6-20.8q-3.8-38.3-45.4 7.1zm67.9-238.8l12.1-92q3.7-15.9 2-19.2-2-3.8-17.5-2.1l-24.5 2.1q-26.3 1.7-62.5 10.4-36.7 8.8-71.7 25.8-34.6 17.5-57.5 45.5-22.5 27.9-22.5 67.9 0 27.9 19.2 48.7 19.1 19.2 57.5 19.2 40 0 69.5-10.4 29.6-10.4 47.1-24.6 17.5-13.8 31.3-32.9 15.8-19.2 17.5-38.4z"/>
</svg>