<svg version="1.2" xmlns="http://www.w3.org/2000/svg" viewBox="0 0 1833 376" width="1833" height="376">
	<title>The Arena Logo</title>
	<style>
		.s0 { fill: #ffffff } 
	</style>
	<path id="TheArena" class="s0" aria-label="TheArena"  d="m48.1 150.1v-14.1q0-1.4 0.6-2.2 0.8-0.8 2.7-0.8h145.7q1.7 0 2.5 0.8 0.8 0.8 0.8 2.2v14.1q0 2.7-3.3 2.7h-54.9q-3 0-3 2.7v175q0 3.5-3.3 3.5h-19.5q-3.2 0-3.2-3.5v-174.8q0-2.9-2.7-2.9h-59.1q-3.3 0-3.3-2.7zm188.1 183.9q-3.6 0-3.6-3.5v-194q0-3.5 3-3.5h16q3 0 3 3.2v72.4q0 1.3 0.5 1.6 0.6 0.3 1.9-0.8 9.5-7.3 17.4-12.2 8.1-4.9 15.7-7 7.8-2.5 17-2.5 21.2 0 32.3 11.4 11.1 11.1 11.1 29.8v100.8q0 4.3-4.1 4.3h-15.2q-1.9 0-2.7-0.8-0.8-1.1-0.8-2.7v-96.7q0-13.3-6.8-20.6-6.7-7.6-21.4-7.6-7.8 0-14.9 2.7-6.7 2.4-13.8 7.3-7 4.6-15.4 11.9v102.4q0 4.1-4.3 4.1zm169.5-62.8q0 13.2 6.3 24.3 6.5 10.9 17 17.4 10.9 6.5 24.1 6.5 13.6 0 24.2-5.4 10.5-5.7 18.1-17.1 1.1-1.1 1.6-1.1 0.8-0.3 2.2 0.3l11.4 5.7q2.4 1.3 0.5 3.8-7.3 10.8-16.2 17.8-8.7 6.8-19.5 10.1-10.9 3.2-24.4 3.2-20.1 0-35.5-9.2-15.5-9.2-24.4-25.7-8.9-16.6-8.9-38.2 0-23.6 8.9-40.4 9.2-17.1 24.7-26.3 15.7-9.2 34.9-9.2 19.8 0 34.4 8.7 14.6 8.7 22.8 25.2 8.1 16.5 8.1 39.8 0 1.9-0.5 3.8-0.3 1.9-3.6 1.9h-103.7q-1.1 0-1.9 1.3-0.6 1.1-0.6 2.8zm0.6-19h82.3q3 0 3.8-0.6 0.8-0.8 0.8-3.2 0-11.7-5.1-21.7-4.9-10.3-14.4-16.5-9.2-6.2-22.5-6.2-14.6 0-24.6 7-10 6.8-15.2 17.9-5.1 11.1-5.1 23.3zm119.1 81.8q-4.6 0-5-4.2 0-4.2 4.6-13.4l141.7-285.1q2.5-5 6.3-6.2 4.2-1.3 9.6-1.3h82.4q5.4 0 7.5 4.2 2.1 4.2 2.9 9.2l60.6 284.7q0.9 4.2-0.4 8.3-1.2 3.8-5.8 3.8h-82q-5.8 0-7.9-9.2l-9.6-47.2q-0.5-3.8-5.5-3.8h-87.8q-5 0-7.9 5.4l-25.1 50.6q-1.2 2.5-2.9 3.4-1.7 0.8-6.3 0.8zm140.5-131.3h47.6q7.1 0 5.1-8.3l-15.1-69.8q-0.4-4.2-2.5-4.2-2.1 0-4.2 3.7l-34.7 71.9q-1.7 4.2-0.8 5.5 0.8 1.2 4.6 1.2zm209.4 131.3q-6.3 0-8.8-3.8-2.5-3.7-2.1-9.2l28.5-201.5q0.8-4.5 2.1-5.8 1.2-1.3 5-1.3h66.4q3.4 0 5.5 2.6 2.1 2.5 1.2 8.3l-2.5 15.1q-0.4 5 1.3 5.4 1.7 0.4 4.6-2.5 8.3-9.2 19.6-16.7 11.3-7.6 23-11.7 11.7-4.6 20.5-4.6 8.4 0 13.4 1.2 5 1.3 4.2 5.9l-8.4 61q-0.8 6.3-2.5 7.9-1.3 1.3-4.2 0.9-10.9-1.7-20.9-2.1-9.6-0.8-14.2-0.8-7.5 0-15.1 2.9-7.5 2.5-13.7 7.1-6.3 4.6-10.5 10-3.8 5.5-4.6 10.9l-15.5 111.2q-0.8 6.7-3.7 8.3-2.5 1.3-9.6 1.3zm280.9 4.2q-31.4 0-55.2-12.6-23.8-12.5-37.6-34.7-13.4-22.1-13.4-51.4 0-25.9 10-49.3 10.1-23.4 27.6-41.8 18-18.8 41.4-29.3 23.8-10.8 51.4-10.8 30.1 0 52.7 12.1 23 12.1 35.5 34.7 13 22.6 13 54.3 0 5.5-0.4 11.3-0.5 5.9-1.3 11.7-0.4 3.8-2.5 5-2.1 0.9-7.5 0.9h-129.2q-5 0-6.3 6.2-1.2 6.3-1.2 11.3 0 14.2 10 20.9 10 6.3 25.5 6.3 12.1 0 23.4-5 11.3-5 24.3-17.6 2.5-2.5 5-2.1 2.9 0 6.7 1.7l35.5 15.5q10.9 4.6 3.4 13.4-18.4 20-35.2 30.9-16.7 10.4-35.1 14.6-18 3.8-40.5 3.8zm-13.8-140.9h52.7q4.1 0 7.1-3.3 3.3-3.8 3.3-11.3 0-8.4-5.4-16.7-5-8.8-18.4-8.8-8.4 0-17.2 4.6-8.3 4.6-14.6 13.8-5.8 8.7-7.5 21.7zm157.2 136.7q-5.5 0-6.7-3.8-0.9-3.7-0.4-9.2l28.4-201.5q0.8-4.5 2.1-5.8 1.2-1.3 5-1.3h71.5q2.5 0 3.7 1.3 1.3 0.8 0.4 5l-2.9 18.8q-0.4 5.5 5 0.4 14.7-12.9 32.2-21.3 18-8.3 36-8.3 27.2 0 43.5 16.3 16.3 15.9 16.3 41.8 0 2.9-0.5 5.8 0 2.9-0.4 6.3l-20.5 145.5q-0.8 6.2-3.7 8.3-2.5 1.7-9.2 1.7h-64q-5.4 0-6.3-3.3-0.8-3.8 0-9.7l18.9-133.7q0.4-2.1 0.4-3.8 0.4-1.7 0.4-2.5 0-7.1-4.6-10.5-4.2-3.3-12.1-3.3-7.1 0-13.8 2.9-6.7 2.5-12.6 8-5.4 5-10.4 12.1l-19.7 134.2q-0.8 6.7-3.7 8.3-2.9 1.3-10.5 1.3zm365.8-16.7q-10.4 11.3-27.2 16.3-16.7 4.6-35.1 4.6-29.2 0-45.5-15.9-16.4-15.9-16.4-39.7 0-24.7 13-41.4 13.4-16.7 34.3-26.8 20.9-10.4 45.1-14.6 24.3-4.6 46-4.6h2.9q8 0 9.2-8.3l1.3-7.2q0.4-1.6 0.4-2.9 0-1.7 0-2.9 0-8.4-4.6-12.1-4.6-3.8-14.2-3.8-10 0-20.9 3.8-10.5 3.3-17.1 16.7-1.3 2.5-3.4 3.3-2.1 0.9-7.5 0l-53.1-10.8q-3.3-0.9-5.4-4.2-1.7-3.8 2.1-13.4 13.3-24.7 41.3-34.7 28.5-10.4 68.2-10.4 35.5 0 56 7.5 20.9 7.5 29.7 20.9 8.8 13.4 8.8 30.9 0 2.9-0.5 5.9 0 2.9-0.4 6.2l-20.5 145.5q-0.8 6.3-2.1 7.5-1.2 1.3-7.1 1.3h-57.2q-5.5 0-6.7-3.8-1.3-3.7-2.1-9.6l-0.4-5q-0.9-9.2-10.9 1.7zm16.3-57.3l2.9-22.1q0.9-3.8 0.5-4.6-0.5-0.9-4.2-0.5l-5.9 0.5q-6.3 0.4-15 2.5-8.8 2.1-17.2 6.2-8.3 4.2-13.8 10.9-5.4 6.7-5.4 16.3 0 6.7 4.6 11.7 4.6 4.6 13.8 4.6 9.6 0 16.7-2.5 7.1-2.5 11.3-5.9 4.2-3.3 7.5-7.9 3.8-4.6 4.2-9.2z"/>
</svg>